# xmcd
#
# Track frame offsets:
#	150
#	10168
#	21766
#	31229
#	42661
#	50826
#	61080
#	75057
#	84164
#	95581
#	105255
#	114295
#	124783
#	136489
#	145916
#	153991
#	165256
#	174790
#	184793
#	195625
#
# Disc length: 2743 seconds
#
# Revision: 0
# Processed by: cddbd v1.5.2PL0 Copyright (c) Steve Scherf et al.
# Submitted via: EZCDAudioConverter 2.0.3.1
#
DISCID=eb0ab514
DTITLE=Variouis - Country and Western Nuggets Cd 2
DYEAR=1900
DGENRE=
TTITLE0=Stewart Redd - Yes I've Come Back
TTITLE1=Hawkins Ronnie - Nobody's Loneosme For Me
TTITLE2=Williams Lawton - Mama Doll
TTITLE3=Frizzell Lefty - Heaven's Plan
TTITLE4=Damron Dick - Times Like This
TTITLE5=Nee Bernie - Country Music Holiday
TTITLE6=Humbird Johnnie - I Can't Help Wondering
TTITLE7=Red and Les - I Want Love Not Sympathy
TTITLE8=Walker Billy - Little Lover
TTITLE9=Husky Ferlin - Wang Dang Do
TTITLE10=Hart Freddie - Farther Than My Eyes Can See
TTITLE11=Richy Paul - Framed
TTITLE12=Torok Mitchell - How Much
TTITLE13=Finney Gene - Love Of A Lifetime
TTITLE14=Morgan Bill - Your Wicked Love
TTITLE15=Smith Warren - Cave In
TTITLE16=Belew Carl - No Love Tonight
TTITLE17=Butler Carl - You Just Don't Steal From A Poor Man
TTITLE18=Williams Lawton - Lightning Jones
TTITLE19=Lile Bobby - Too Many Secrets
EXTD=
EXTT0=
EXTT1=
EXTT2=
EXTT3=
EXTT4=
EXTT5=
EXTT6=
EXTT7=
EXTT8=
EXTT9=
EXTT10=
EXTT11=
EXTT12=
EXTT13=
EXTT14=
EXTT15=
EXTT16=
EXTT17=
EXTT18=
EXTT19=
PLAYORDER=
